<svg width="48" height="48" viewBox="0 0 48 48" fill="none" xmlns="http://www.w3.org/2000/svg">
<g filter="url(#filter0_d_410_48044)">
<rect x="4" width="40" height="40" rx="10" fill="white" shape-rendering="crispEdges"/>
<path d="M13.4541 12.8696H17.0905" stroke="#DA0175" stroke-width="1.5" stroke-linecap="round" stroke-linejoin="round"/>
<path d="M13.4541 27.478H17.0905" stroke="#DA0175" stroke-width="1.5" stroke-linecap="round" stroke-linejoin="round"/>
<path d="M25.0908 12.8696H34.5454" stroke="#DA0175" stroke-width="1.5" stroke-linecap="round" stroke-linejoin="round"/>
<path d="M25.0908 27.478H34.5454" stroke="#DA0175" stroke-width="1.5" stroke-linecap="round" stroke-linejoin="round"/>
<path d="M13.4541 20.1738H24.3632" stroke="#DA0175" stroke-width="1.5" stroke-linecap="round" stroke-linejoin="round"/>
<path d="M32.3633 20.1738H34.5451" stroke="#DA0175" stroke-width="1.5" stroke-linecap="round" stroke-linejoin="round"/>
<path d="M21.0911 15.9996C22.8986 15.9996 24.3638 14.5981 24.3638 12.8692C24.3638 11.1403 22.8986 9.73877 21.0911 9.73877C19.2836 9.73877 17.8184 11.1403 17.8184 12.8692C17.8184 14.5981 19.2836 15.9996 21.0911 15.9996Z" stroke="#DA0175" stroke-width="1.5" stroke-linecap="round" stroke-linejoin="round"/>
<path d="M21.0911 30.6085C22.8986 30.6085 24.3638 29.207 24.3638 27.4781C24.3638 25.7492 22.8986 24.3477 21.0911 24.3477C19.2836 24.3477 17.8184 25.7492 17.8184 27.4781C17.8184 29.207 19.2836 30.6085 21.0911 30.6085Z" stroke="#DA0175" stroke-width="1.5" stroke-linecap="round" stroke-linejoin="round"/>
<path d="M28.3635 23.3043C30.171 23.3043 31.6363 21.9028 31.6363 20.1739C31.6363 18.445 30.171 17.0435 28.3635 17.0435C26.5561 17.0435 25.0908 18.445 25.0908 20.1739C25.0908 21.9028 26.5561 23.3043 28.3635 23.3043Z" stroke="#DA0175" stroke-width="1.5" stroke-linecap="round" stroke-linejoin="round"/>
</g>
<defs>
<filter id="filter0_d_410_48044" x="0" y="0" width="48" height="48" filterUnits="userSpaceOnUse" color-interpolation-filters="sRGB">
<feFlood flood-opacity="0" result="BackgroundImageFix"/>
<feColorMatrix in="SourceAlpha" type="matrix" values="0 0 0 0 0 0 0 0 0 0 0 0 0 0 0 0 0 0 127 0" result="hardAlpha"/>
<feOffset dy="4"/>
<feGaussianBlur stdDeviation="2"/>
<feComposite in2="hardAlpha" operator="out"/>
<feColorMatrix type="matrix" values="0 0 0 0 0 0 0 0 0 0 0 0 0 0 0 0 0 0 0.25 0"/>
<feBlend mode="normal" in2="BackgroundImageFix" result="effect1_dropShadow_410_48044"/>
<feBlend mode="normal" in="SourceGraphic" in2="effect1_dropShadow_410_48044" result="shape"/>
</filter>
</defs>
</svg>
